<?xml version="1.0" encoding="utf-8"?>
<!-- Generator: Adobe Illustrator 26.0.2, SVG Export Plug-In . SVG Version: 6.00 Build 0)  -->
<svg version="1.1" id="Layer_1" xmlns="http://www.w3.org/2000/svg" xmlns:xlink="http://www.w3.org/1999/xlink" x="0px" y="0px"
	 viewBox="0 0 225.9 71.1" style="enable-background:new 0 0 225.9 71.1;" xml:space="preserve">
<style type="text/css">
	.st0{fill:#43493A;}
	.st1{fill:#43493A;stroke:#43493A;stroke-width:0.5;stroke-miterlimit:10;}
</style>
<g>
	<path class="st0" d="M58.5,35.7c0.6-1.1,1.1-2.3,1.7-3.4c2-4.1,4-8.2,5.4-12.5C69,8.9,59.8-1.5,48.5,0.2C45.8,0.6,43.3,1.6,41,3
		c-2.9-2.6-6.5-3.5-10.6-2.7c-2.1,0.4-3.8,1.3-5.2,2.6c-1.3-0.8-2.7-1.4-4.1-1.9C11.7-2.3,2.3,3,0.3,12.6c-0.8,3.9,0.2,7.6,1.9,11.1
		c1.9,3.9,3.7,7.8,5.6,11.7c-0.6,1.1-1.1,2.3-1.7,3.4c-2,4.1-4,8.2-5.4,12.5c-3.4,10.9,5.8,21.2,17,19.5c2.7-0.4,5.2-1.4,7.5-2.8
		c1-0.6,1.9-1.2,2.8-2c0.5-0.4,1-0.8,1.5-1.2c1.2-1.1,2.4-2.2,4-3.6c0.9,1,1.6,2.1,2.4,2.9c0.2,0.2,0.5,0.5,0.7,0.7
		c1.4,1.3,2.9,2.4,4.4,3.3c1.3,0.8,2.7,1.4,4.1,1.9c9.4,3.3,18.8-2,20.8-11.7c0.8-3.9-0.2-7.6-1.9-11.1
		C62.2,43.5,60.3,39.6,58.5,35.7z M45.4,6.6c5.8-3.1,12.4-0.9,14.9,4.7c1.3,3,1.1,6-0.3,8.9c-1.5,3.1-3,6.2-4.4,9.3
		c-1.5-3.1-3-6.2-4.5-9.3c-2.1-4.3-4.3-8.6-6.6-12.8c0-0.1-0.1-0.1-0.1-0.2C44.7,7,45,6.8,45.4,6.6z M6.3,19.9
		C4.2,15.4,5.1,11.1,8.4,8c3.5-3.3,7.6-3.5,11.9-1.8C20.9,6.4,21.4,6.7,22,7c-0.2,0.3-0.3,0.6-0.5,0.9C18,15,14.4,22.2,10.8,29.3
		C9.3,26.2,7.8,23.1,6.3,19.9z M33.5,52.8c-0.1,0.1-0.3,0.1-0.7,0.3c-2-3-4.1-5.8-5.4-9c-0.8-1.9-1.3-4-1.3-6.2
		c0-0.8,0.1-1.6,0.3-2.3l0,0c0.6-2.1,2-3.5,4.1-4.3c3-1,6.3-0.2,8.2,2.1c0.6,0.7,0.9,1.4,1.2,2.1c0.5,1.7,0.3,3.4,0,5.1
		c-0.3,1.2-0.6,2.4-1.1,3.5C37.5,47.3,35.6,50.1,33.5,52.8z M57.9,63.1c-3.5,3.3-7.6,3.5-11.9,1.8c-0.6-0.2-1.1-0.5-1.7-0.8
		c-1.5-0.8-2.9-1.9-4.2-3.1c-1-0.9-1.9-1.8-2.9-2.8c-0.8-0.9-0.1-1.4,0.3-2.1c2.2-3.8,4.6-7.6,6.5-11.5c1.3-2.7,1.8-5.8,1.2-8.8
		v-0.1c-0.8-4.1-3.1-7.1-6.3-8.7c-1.7-0.8-3.7-1.3-5.9-1.3c-2.1,0-3.9,0.4-5.5,1.2c-3.4,1.6-5.7,4.6-6.4,8.5c-0.4,2-0.3,4.3,0.2,6.6
		c1.2,5.3,4,9.8,7.3,14c0.9,1.2,1,2-0.2,2.9c-0.7,0.6-1.5,1.2-2.2,1.8C24.8,61.9,23.5,63,22,64c-0.3,0.2-0.7,0.4-1,0.6
		c-5.9,3-12.5,0.8-15-4.8c-1.3-3-1.1-6,0.3-8.9c1.5-3.1,3-6.2,4.4-9.3c1-2.1,2-4.1,3-6.2c3.4-7,6.7-14,10.1-20.9
		c0.7-1.5,1.5-3,2.3-4.4c0.2-0.3,0.3-0.5,0.5-0.8c0.8-1.4,1.9-2.4,3-3.1c2.3-1.4,4.9-1.4,7.1,0c1.1,0.7,2.1,1.8,2.9,3.3
		c0.2,0.3,0.3,0.6,0.5,0.9c4.2,8.4,8.3,16.8,12.4,25.2c1,2,2,4.1,3,6.1c1.5,3.1,3,6.2,4.5,9.4C62.1,55.6,61.1,60,57.9,63.1z"/>
</g>
<g>
	<path class="st1" d="M101.6,53v-2.4c-2.2,2-4.9,2.9-8.1,2.9c-2.4,0-4.6-0.6-6.6-1.7c-2-1.2-3.7-2.8-4.9-4.9c-1.2-2.1-1.8-4.4-1.8-7
		s0.6-4.9,1.8-7s2.9-3.8,4.9-4.9c1.9-1.1,4-1.7,6.4-1.7c3.2,0,5.9,1,8.2,2.9v-2.4h5.1V53H101.6z M101.4,44.8V35
		c-1.9-2.5-4.4-3.7-7.5-3.7c-2.4,0-4.5,0.8-6,2.5c-1.6,1.7-2.4,3.7-2.4,6.1c0,2.4,0.8,4.4,2.5,6.1c1.6,1.7,3.7,2.5,6.2,2.5
		C97.1,48.6,99.5,47.3,101.4,44.8z"/>
	<path class="st1" d="M113.7,20.1c-0.7-0.7-1-1.5-1-2.4c0-1,0.3-1.8,1-2.5s1.5-1,2.4-1c1,0,1.8,0.3,2.5,1s1,1.5,1,2.5
		s-0.3,1.8-1,2.4c-0.7,0.7-1.5,1-2.5,1C115.2,21.1,114.3,20.7,113.7,20.1z M113.5,53V26.9h5.3V53H113.5z"/>
	<path class="st1" d="M140.6,26.5l-0.6,5.1c-0.6-0.1-1.2-0.2-2.1-0.2c-1.3,0-2.7,0.4-4,1.3c-1.3,0.8-2.3,1.9-3.1,3.1V53h-5.3V26.9
		h5.1v3c0.7-1,1.7-1.8,3.1-2.5c1.4-0.7,2.9-1,4.7-1C139.3,26.3,140,26.4,140.6,26.5z"/>
	<path class="st1" d="M162.6,44.5l4.1,2.9c-1.1,1.8-2.7,3.3-4.8,4.4c-2.2,1.1-4.4,1.7-6.8,1.7c-4,0-7.3-1.3-10-3.9
		c-2.7-2.6-4-5.8-4-9.7s1.3-7.1,3.9-9.7c2.6-2.6,5.8-3.9,9.7-3.9c2.2,0,4.3,0.5,6.3,1.5s3.6,2.4,4.8,4.1l-3.9,3.3
		c-1.9-2.6-4.3-3.9-7.2-3.9c-2.4,0-4.4,0.8-5.9,2.4c-1.6,1.6-2.4,3.7-2.4,6.2c0,2.6,0.8,4.6,2.4,6.2c1.6,1.6,3.7,2.4,6.2,2.4
		C158,48.6,160.6,47.2,162.6,44.5z"/>
	<path class="st1" d="M175.3,26.9v2.5c2.1-2,4.7-3.1,7.8-3.1c3.9,0,7.1,1.5,9.5,4.6c1.7,2.2,2.6,5.2,2.6,9.3V53h-5.3V40
		c0-2.7-0.5-4.8-1.6-6.1c-1.3-1.7-3.1-2.6-5.4-2.6c-3,0-5.5,1.2-7.5,3.7v18h-5.3V26.9H175.3z"/>
	<path class="st1" d="M220.5,53v-2.4c-2.2,2-4.9,2.9-8.1,2.9c-2.4,0-4.6-0.6-6.6-1.7c-2-1.2-3.7-2.8-4.9-4.9c-1.2-2.1-1.8-4.4-1.8-7
		s0.6-4.9,1.8-7s2.9-3.8,4.9-4.9c1.9-1.1,4-1.7,6.4-1.7c3.1,0,5.7,0.9,8,2.8V13.5h5.3V53H220.5z M220.4,44.8V35
		c-1.9-2.5-4.4-3.7-7.5-3.7c-2.4,0-4.5,0.8-6,2.5c-1.6,1.7-2.4,3.7-2.4,6.1c0,2.4,0.8,4.4,2.5,6.1c1.6,1.7,3.7,2.5,6.2,2.5
		C216.1,48.6,218.5,47.3,220.4,44.8z"/>
</g>
</svg>
